<svg width="26" height="18" viewBox="0 0 26 18" fill="none" xmlns="http://www.w3.org/2000/svg">
<path fill-rule="evenodd" clip-rule="evenodd" d="M10.7052 0.225952C4.87029 0.225952 0.117447 3.44623 0.117447 7.39967C0.117447 11.3531 4.87029 14.5734 10.7052 14.5734C13.2426 14.5734 15.5728 13.9629 17.3991 12.9495L23.7207 17.2327C23.9863 17.4201 24.3806 17.4956 24.7517 17.4301C25.1227 17.3645 25.4125 17.1682 25.5092 16.9168C25.6059 16.6654 25.4945 16.3982 25.2179 16.2183L18.8963 11.9351C20.392 10.6977 21.293 9.11886 21.293 7.39967C21.293 3.44623 16.5401 0.225952 10.7052 0.225952V0.225952ZM10.7052 1.66068C15.3957 1.66068 19.1754 4.22161 19.1754 7.39965C19.1754 10.5777 15.3957 13.1386 10.7052 13.1386C6.01471 13.1386 2.235 10.5777 2.235 7.39965C2.235 4.22161 6.01471 1.66068 10.7052 1.66068V1.66068Z" fill="#999999"/>
</svg>
