<svg width="24" height="20" viewBox="0 0 24 20" fill="none" xmlns="http://www.w3.org/2000/svg">
<path d="M21.2497 5.09597C21.264 5.30335 21.264 5.51076 21.264 5.71813C21.264 12.0432 16.6064 19.3312 8.09363 19.3312C5.47101 19.3312 3.03472 18.5461 0.985352 17.1834C1.35798 17.2278 1.71622 17.2426 2.10318 17.2426C4.26716 17.2426 6.25922 16.4872 7.84999 15.1984C5.81496 15.154 4.10954 13.7764 3.52195 11.8803C3.8086 11.9247 4.0952 11.9544 4.39619 11.9544C4.81178 11.9544 5.22741 11.8951 5.61433 11.7914C3.49332 11.347 1.90251 9.42136 1.90251 7.09573V7.0365C2.51873 7.39201 3.23535 7.6142 3.99485 7.64379C2.74803 6.78463 1.93118 5.31816 1.93118 3.6591C1.93118 2.77034 2.16044 1.95563 2.56174 1.24461C4.84041 4.14794 8.26558 6.04396 12.1063 6.25138C12.0347 5.89587 11.9916 5.52558 11.9916 5.15525C11.9916 2.51852 14.0554 0.370667 16.6206 0.370667C17.9534 0.370667 19.1572 0.948369 20.0028 1.88159C21.0489 1.67421 22.0521 1.27424 22.9407 0.726179C22.5967 1.83717 21.8658 2.77039 20.9057 3.36287C21.8372 3.25923 22.7401 2.99253 23.5712 2.62225C22.9408 3.57024 22.1525 4.41454 21.2497 5.09597Z" fill="black"/>
</svg>
