<svg width="517" height="73" viewBox="0 0 517 73" fill="none" xmlns="http://www.w3.org/2000/svg">
<g style="mix-blend-mode:color-burn">
<g filter="url(#filter0_i_2_5260)">
<path d="M1 36.5C1 16.8939 16.8939 1 36.5 1H480.5C500.106 1 516 16.8939 516 36.5V36.5C516 56.1061 500.106 72 480.5 72H36.5C16.8939 72 1 56.1061 1 36.5V36.5Z" fill="#5C1CE9"/>
</g>
<path d="M1 36.5C1 16.8939 16.8939 1 36.5 1H480.5C500.106 1 516 16.8939 516 36.5V36.5C516 56.1061 500.106 72 480.5 72H36.5C16.8939 72 1 56.1061 1 36.5V36.5Z" stroke="black"/>
</g>
<defs>
<filter id="filter0_i_2_5260" x="0.5" y="0.5" width="516" height="76" filterUnits="userSpaceOnUse" color-interpolation-filters="sRGB">
<feFlood flood-opacity="0" result="BackgroundImageFix"/>
<feBlend mode="normal" in="SourceGraphic" in2="BackgroundImageFix" result="shape"/>
<feColorMatrix in="SourceAlpha" type="matrix" values="0 0 0 0 0 0 0 0 0 0 0 0 0 0 0 0 0 0 127 0" result="hardAlpha"/>
<feOffset dy="4"/>
<feGaussianBlur stdDeviation="2"/>
<feComposite in2="hardAlpha" operator="arithmetic" k2="-1" k3="1"/>
<feColorMatrix type="matrix" values="0 0 0 0 0 0 0 0 0 0 0 0 0 0 0 0 0 0 0.25 0"/>
<feBlend mode="normal" in2="shape" result="effect1_innerShadow_2_5260"/>
</filter>
</defs>
</svg>
